<svg xmlns="http://www.w3.org/2000/svg" viewBox="0 0 64 64" width="64" height="64" role="img" aria-label="하트 도장">
<defs><filter id="ink" x="-10%" y="-10%" width="120%" height="120%"><feTurbulence type="fractalNoise" baseFrequency="0.9" numOctaves="2" seed="3" result="n"/><feDisplacementMap in="SourceGraphic" in2="n" scale="1.6"/></filter></defs>
<g filter="url(#ink)">
<circle cx="32" cy="32" r="29" fill="#fff1f2"/>
<circle cx="32" cy="32" r="29" fill="none" stroke="#e11d48" stroke-width="3.5"/>
<circle cx="32" cy="32" r="23.5" fill="none" stroke="#e11d48" stroke-width="1.6" stroke-dasharray="3 2.4"/>
<path d="M32 46.5 C22 39 16.5 33.6 16.5 26.8 C16.5 21.8 20.3 18 25 18 C28 18 30.6 19.6 32 22 C33.4 19.6 36 18 39 18 C43.7 18 47.5 21.8 47.5 26.8 C47.5 33.6 42 39 32 46.5Z" fill="#e11d48"/>
<ellipse cx="26.5" cy="24.5" rx="2.6" ry="1.6" fill="#fff" opacity="0.7" transform="rotate(-30 26.5 24.5)"/>
</g></svg>
